<svg xmlns="http://www.w3.org/2000/svg" width="173" height="240" viewBox="0 0 173 240"><defs><style>.a{fill:rgba(255,255,255,0.1);stroke:#f0dfc6;stroke-width:4px;}.b{fill:#537973;}.c{fill:#879b8e;}.d{stroke:none;}.e{fill:none;}</style></defs><g transform="translate(-1416 -44)"><g class="a" transform="translate(1416 44)"><rect class="d" width="173" height="240" rx="10"/><rect class="e" x="2" y="2" width="169" height="236" rx="8"/></g><g transform="translate(1416.375 44.279)"><path class="b" d="M81.7,85.454,51.358,115.8a5.959,5.959,0,0,0,0,8.4L81.7,154.545a5.921,5.921,0,0,0,4.2,1.733V83.721A5.926,5.926,0,0,0,81.7,85.454Z"/><path class="c" d="M120.449,115.8,90.105,85.454a5.923,5.923,0,0,0-4.2-1.733v72.557a5.919,5.919,0,0,0,4.2-1.733L120.449,124.2A5.959,5.959,0,0,0,120.449,115.8Z"/></g></g></svg>