<svg xmlns="http://www.w3.org/2000/svg" width="173" height="240" viewBox="0 0 173 240"><defs><style>.a{fill:rgba(255,255,255,0.1);stroke:#f0dfc6;stroke-width:4px;}.b{fill:#879b8e;}.c{fill:#537973;}.d{stroke:none;}.e{fill:none;}</style></defs><g transform="translate(-982 -44)"><g class="a" transform="translate(982 44)"><rect class="d" width="173" height="240" rx="10"/><rect class="e" x="2" y="2" width="169" height="236" rx="8"/></g><g transform="translate(982.407 44.279)"><path class="b" d="M96.976,156.278a3.028,3.028,0,0,0,2.141-5.169l-9.24-9.24A5.6,5.6,0,0,0,85.9,140.23v16.048Z"/><path class="c" d="M72.689,151.11a3.028,3.028,0,0,0,2.142,5.168H85.9V140.23a5.6,5.6,0,0,0-3.973,1.639Z"/><path class="b" d="M120,124.637a17.147,17.147,0,0,1-33.545,1.475H85.9V83.729a5.058,5.058,0,0,1,3.82,1.407L113.9,108.582a17.276,17.276,0,0,1,1.99,1.93l.016.015h0A17.1,17.1,0,0,1,120,124.637Z"/><path class="c" d="M85.355,126.112a17.147,17.147,0,1,1-27.234-17.688L82.684,85.1a5.051,5.051,0,0,1,3.219-1.37v42.383Z"/></g></g></svg>