<svg xmlns="http://www.w3.org/2000/svg" width="280.978" height="263" viewBox="0 0 280.978 263"><defs><style>.a,.b,.c{fill:none;stroke:#969695;stroke-width:3px;}.a,.b{stroke-linecap:round;}.a{stroke-linejoin:round;}</style></defs><g transform="translate(-1464.733 -786.5)"><path class="a" d="M2073.682,2026.177v-23.066h15.592v11.995h10.968v-11.995h15.814v11.995H2129.2v-11.995h14.7v11.995h13.557v-11.995H2171.3v23.066Z" transform="translate(-517.059 -1116.482)"/><path class="a" d="M0,44.651V16.237a16.237,16.237,0,0,1,32.474,0V44.651Z" transform="translate(1590.097 918.877)"/><path class="a" d="M0,35.081V11.28a11.281,11.281,0,0,1,22.561,0v23.8Z" transform="translate(1595.054 923.663)"/><g transform="translate(1544.441 975.16)"><path class="a" d="M2073.682,2075.948v-72.836h15.592v11.995h10.968v-11.995h15.814v11.995H2129.2v-11.995h14.7v11.995h11.906v-11.995h15.719v11.995h12.282v-11.995h13.833v72.836Z" transform="translate(-2073.682 -2003.112)"/><path class="a" d="M0,44.651V16.237a16.237,16.237,0,0,1,32.474,0V44.651Z" transform="translate(47.327 28.189)"/><path class="a" d="M0,38.34V10.251a10.252,10.252,0,0,1,20.5,0V38.34Z" transform="translate(53.312 34.388)"/></g><path class="a" d="M2124.679,1982.843l-13.741-59.786-13.677,59.786" transform="translate(-503.743 -1096.498)"/><line class="b" y1="38.563" transform="translate(1607.122 788.015)"/><rect class="a" width="30.444" height="22.326" transform="translate(1607.333 788)"/><rect class="a" width="30.444" height="22.326" transform="translate(1638.128 799.119)"/><rect class="c" width="66.978" height="36.533" transform="translate(1466.233 1011.467)"/><rect class="c" width="66.978" height="36.533" transform="translate(1677.233 1011.467)"/><rect class="c" width="52.77" height="91.452" transform="translate(1474.352 920.015)"/><rect class="c" width="52.77" height="91.452" transform="translate(1685.352 920.015)"/><path class="a" d="M2073.682,2019.958v-14.846h14.152v6.828h9.955v-6.828h14.353v6.828h10.378v-6.828h12.555v14.846Z" transform="translate(-604.419 -1099.682)"/><path class="a" d="M2073.682,2019.958v-14.846h14.152v6.828h9.955v-6.828h14.353v6.828h10.378v-6.828h12.555v14.846Z" transform="translate(-393.419 -1099.682)"/><g transform="translate(1487.545 931.546)"><path class="a" d="M0,55.669V12.69a12.689,12.689,0,1,1,25.378,0v42.98Z"/></g><g transform="translate(1698.545 931.546)"><path class="a" d="M0,55.669V12.69a12.689,12.689,0,1,1,25.378,0v42.98Z"/></g><path class="a" d="M2042.754,2028.135,2068.1,1984.8l25.195,43.335" transform="translate(-568.267 -1123.904)"/><path class="a" d="M2042.754,2044.471l41.675-59.672,41.426,59.672" transform="translate(-477.254 -1158.241)"/><path class="a" d="M2042.754,2028.135,2068.1,1984.8l25.195,43.335" transform="translate(-356.267 -1123.904)"/><path class="c" d="M1574.122,2206.052H1591" transform="translate(-46.302 -1219.682)"/><path class="c" d="M1574.122,2206.052H1591" transform="translate(94.698 -1219.682)"/><line class="c" y1="78" transform="translate(1565.5 909.5)"/><line class="c" y1="78" transform="translate(1648.5 909.5)"/></g></svg>