<svg xmlns="http://www.w3.org/2000/svg" width="173" height="240" viewBox="0 0 173 240"><defs><style>.a{fill:rgba(255,255,255,0.1);stroke:#f0dfc6;stroke-width:4px;}.b{fill:#879b8e;}.c{fill:#537973;}.d{stroke:none;}.e{fill:none;}</style></defs><g transform="translate(-1633 -44)"><g class="a" transform="translate(1633 44)"><rect class="d" width="173" height="240" rx="10"/><rect class="e" x="2" y="2" width="169" height="236" rx="8"/></g><g transform="translate(1633.894 44.279)"><path class="b" d="M96.811,156.279a2.983,2.983,0,0,0,2.109-5.092l-9.1-9.1A5.517,5.517,0,0,0,85.9,140.47v15.809Z"/><path class="c" d="M72.887,151.187A2.983,2.983,0,0,0,75,156.279H85.9V140.47a5.519,5.519,0,0,0-3.915,1.615Z"/><path class="c" d="M69,100.594a16.824,16.824,0,0,0,1.138,6.057c-.378-.025-.754-.058-1.138-.058A16.907,16.907,0,1,0,85.117,128.6a.808.808,0,0,1,.786-.574V83.721A16.883,16.883,0,0,0,69,100.594Z"/><path class="b" d="M102.8,106.593c-.384,0-.76.033-1.138.058A16.887,16.887,0,0,0,89.093,83.987a17.7,17.7,0,0,0-3.19-.266v44.31a.809.809,0,0,1,.787.574A16.907,16.907,0,1,0,102.8,106.593Z"/></g></g></svg>