<svg xmlns="http://www.w3.org/2000/svg" width="173" height="240" viewBox="0 0 173 240"><defs><style>.a{fill:rgba(255,255,255,0.1);stroke:#f0dfc6;stroke-width:4px;}.b{fill:#879b8e;}.c{fill:#537973;}.d{stroke:none;}.e{fill:none;}</style></defs><g transform="translate(-1199 -44)"><g class="a" transform="translate(1199 44)"><rect class="d" width="173" height="240" rx="10"/><rect class="e" x="2" y="2" width="169" height="236" rx="8"/></g><g transform="translate(1199.894 44.242)"><path class="b" d="M119.487,106.937a16.89,16.89,0,0,0-33.043-1.453H85.9v41.749a4.973,4.973,0,0,0,3.762-1.386l23.812-23.1a17.013,17.013,0,0,0,1.961-1.9l.015-.015h0A16.847,16.847,0,0,0,119.487,106.937Z"/><path class="c" d="M85.363,105.484a16.891,16.891,0,1,0-26.827,17.423l24.2,22.977a4.971,4.971,0,0,0,3.172,1.349V105.484Z"/></g></g></svg>